PathFileType	3	(X/Y/Z)	F:\ViconData\AntennenMessung\Messung1\Session1\ID09.trc
DataRate	CameraRate	NumFrames	NumMarkers	Units	OrigDataRate	OrigDataStartFrame	OrigNumFrames
120.0	120.0	4	70	mm	120.0	1	1082	
Frame#	Time	Ashort			Along			Atop			A4			Bshort			Blong			Btop			B4			Cshort			Clong			Ctop			C4			Dshort			Dlong			Dtop			D4			Eshort			Elong			Etop			E4			Fshort			Flong			Ftop			F4			Gshort			Glong			Gtop			G4			Hshort			Hlong			Htop			H4			I1			I2			I3			I4			I5			WandAshort			WandAlong			WandAtop			WandA4			WandA15			WandBshort			WandB4			WandB5			WandBtop			WandBlong			WandCshort			WandClong			WandCtop			WandC4			WandC5			Acenter			Aantenna			Bcenter			Bantenna			Ccenter			Cantenna			Dcenter			Dantenna			Ecenter			Eantenna			Fcenter			Fantenna			Gcenter			Gantenna			Hcenter			Hantenna			Icenter			Iantenna			
		X1	Y1	Z1	X2	Y2	Z2	X3	Y3	Z3	X4	Y4	Z4	X5	Y5	Z5	X6	Y6	Z6	X7	Y7	Z7	X8	Y8	Z8	X9	Y9	Z9	X10	Y10	Z10	X11	Y11	Z11	X12	Y12	Z12	X13	Y13	Z13	X14	Y14	Z14	X15	Y15	Z15	X16	Y16	Z16	X17	Y17	Z17	X18	Y18	Z18	X19	Y19	Z19	X20	Y20	Z20	X21	Y21	Z21	X22	Y22	Z22	X23	Y23	Z23	X24	Y24	Z24	X25	Y25	Z25	X26	Y26	Z26	X27	Y27	Z27	X28	Y28	Z28	X29	Y29	Z29	X30	Y30	Z30	X31	Y31	Z31	X32	Y32	Z32	X33	Y33	Z33	X34	Y34	Z34	X35	Y35	Z35	X36	Y36	Z36	X37	Y37	Z37	X38	Y38	Z38	X39	Y39	Z39	X40	Y40	Z40	X41	Y41	Z41	X42	Y42	Z42	X43	Y43	Z43	X44	Y44	Z44	X45	Y45	Z45	X46	Y46	Z46	X47	Y47	Z47	X48	Y48	Z48	X49	Y49	Z49	X50	Y50	Z50	X51	Y51	Z51	X52	Y52	Z52	X53	Y53	Z53	X54	Y54	Z54	X55	Y55	Z55	X56	Y56	Z56	X57	Y57	Z57	X58	Y58	Z58	X59	Y59	Z59	X60	Y60	Z60	X61	Y61	Z61	X62	Y62	Z62	X63	Y63	Z63	X64	Y64	Z64	X65	Y65	Z65	X66	Y66	Z66	X67	Y67	Z67	X68	Y68	Z68	X69	Y69	Z69	X70	Y70	Z70	
1	0	-1038.2268	214.51976	-1644.0619	-1109.3623	204.01099	-1599.4514	-1063.5011	171.42448	-1625.1218	-1054.1337	262.14548	-1634.8771	-1352.8262	235.1633	1004.1003	-1281.252	227.14694	1052.8872	-1322.959	193.98674	1021.0244	-1284.7002	288.16199	1052.261	814.2027	187.46553	1209.5038	892.81763	179.57379	1178.5873	844.27527	145.67993	1198.2622	860.88983	292.61514	1168.0267	1115.8827	209.97539	-1401.7422	1056.2656	194.23511	-1460.2758	1095.0032	162.31976	-1423.7676	1069.818	238.72096	-1425.9042	-1204.6039	1686.0234	-1563.0615	-1129.1781	1688.4343	-1606.7531	-1173.1349	1724.4413	-1581.9496	-1134.0238	1581.0007	-1603.7136	-1239.781	1699.412	1119.5297	-1309.5217	1699.0566	1072.01	-1270.5059	1736.4368	1096.9286	-1245.6787	1592.9487	1110.7305	988.87537	1664.1746	1162.3132	955.75562	1702.3079	1181.0631	921.74567	1662.3756	1214.8829	939.81024	1659.4144	1159.9985	999.19916	1668.465	-1579.3538	1059.0201	1670.2115	-1518.655	1025.0366	1707.9814	-1551.101	1059.2529	1672.2136	-1585.5929	411.04227	1606.2831	-23.965919	411.52304	1607.984	-108.10959	413.45981	1643.9857	-60.850639	444.18542	1605.0681	-61.095535	363.51459	1610.2622	-61.341167																																														-1068.9796	209.97667	-1624.7761	-1074.4664	248.58722	-1624.4301	-1321.6752	231.67436	1025.3335	-1320.3561	270.39972	1029.7616	847.41895	184.13112	1196.4409	850.59332	222.95818	1194.6018	1088.7955	202.82378	-1428.337	1082.9238	241.1362	-1432.6593	-1171.9545	1687.067	-1581.974	-1170.7233	1648.0864	-1581.9996	-1271.1516	1699.252	1098.1544	-1271.8284	1660.2791	1099.4391	953.04248	1705.4315	1182.599	972.64886	1732.4045	1162.3741	1026.6115	1669.2653	-1551.5392	1028.1965	1630.2999	-1551.9802	411.25732	1607.0439	-61.610035	408.9368	1568.1213	-62.410152
2	0.0083333333	-1038.2366	214.54166	-1644.0863	-1109.3284	204.00887	-1599.4479	-1063.5182	171.48665	-1625.1909	-1054.142	262.16522	-1634.9016	-1352.8528	235.13197	1004.0933	-1281.3058	227.1609	1052.8367	-1322.9417	194.00392	1020.9118	-1284.692	288.13785	1052.2662	814.11639	187.61026	1209.4698	892.7641	179.48238	1178.6104	844.31586	145.56029	1198.3121	860.82965	292.73517	1168.0099	1115.8781	209.95494	-1401.7363	1056.2576	194.22035	-1460.2727	1094.9983	162.29567	-1423.8308	1069.8384	238.75711	-1425.9316	-1204.5907	1686.0094	-1563.0696	-1129.104	1688.2788	-1606.0005	-1173.1942	1724.3324	-1581.8384	-1134.0199	1581.0093	-1603.7084	-1239.7576	1699.3843	1119.5176	-1309.4849	1698.9998	1071.9966	-1270.4821	1736.4105	1096.9152	-1245.6959	1592.9373	1110.7412	988.84039	1664.1678	1162.304	955.83398	1702.2229	1181.0693	921.71234	1662.3982	1214.8818	939.7757	1659.3992	1160.0106	999.18329	1668.4655	-1579.3899	1059.0261	1670.2162	-1518.6534	1025.0441	1707.9861	-1551.1027	1059.2838	1672.1512	-1585.4178	411.02496	1606.2797	-23.960535	411.53125	1607.9889	-108.10944	413.46973	1643.9938	-60.835663	444.18011	1605.0681	-61.102459	363.48328	1610.3004	-61.318661																																														-1068.97	209.98827	-1624.7889	-1074.4375	248.60098	-1624.3856	-1321.7321	231.66479	1025.2952	-1320.4884	270.38361	1029.8015	847.53711	184.15637	1196.3562	850.77667	222.97177	1194.3893	1088.7585	202.79776	-1428.3625	1082.8564	241.1095	-1432.6494	-1171.9536	1686.9905	-1581.631	-1170.6586	1648.0126	-1581.4144	-1271.1157	1699.2112	1098.146	-1271.7797	1660.2383	1099.4355	953.03314	1705.452	1182.6616	972.66168	1732.4336	1162.4696	1026.6221	1669.2682	-1551.5414	1028.2101	1630.303	-1551.9829	411.2514	1607.0441	-61.599522	408.91464	1568.1224	-62.404156
3	0.016666667	-1038.2281	214.5453	-1644.0879	-1109.3434	204.00128	-1599.449	-1063.5758	171.11186	-1624.889	-1054.1267	262.1684	-1634.9062	-1352.8531	235.08043	1004.1877	-1281.2913	227.134	1052.8983	-1322.9127	194.04306	1020.8574	-1284.7915	288.06241	1052.4091	814.18384	187.47411	1209.5631	892.08636	178.56038	1179.234	844.27161	145.73213	1198.2595	860.86414	292.74759	1168.141	1115.7938	209.554	-1401.5187	1056.251	194.19522	-1460.2432	1094.9733	162.29173	-1423.7148	1069.8505	238.76819	-1425.906	-1204.6008	1686.0262	-1563.0695	-1129.09	1688.2682	-1605.9962	-1173.1459	1724.4485	-1581.9677	-1134.0056	1580.9972	-1603.7194	-1239.7771	1699.4076	1119.5167	-1309.514	1699.0522	1072.0111	-1270.4996	1736.4474	1096.9298	-1245.6371	1592.8763	1110.7162	988.90051	1664.2085	1162.3306	955.91821	1702.254	1181.1294	922.67114	1662.1157	1215.0261	939.7702	1659.3961	1159.9905	999.19141	1668.4706	-1579.3662	1059.0173	1670.2125	-1518.6511	1025.0493	1707.9929	-1551.1084	1059.2489	1672.2087	-1585.5931	411.03766	1606.2939	-23.963369	411.52481	1607.9829	-108.10251	413.46152	1643.9818	-60.841682	444.18106	1605.0719	-61.093601	363.50912	1610.2721	-61.33083																																														-1069.1877	209.955	-1624.6545	-1074.7645	248.55354	-1624.4216	-1321.786	231.63065	1025.3342	-1320.626	270.33978	1029.9448	847.89716	183.61656	1196.4379	851.60828	222.39478	1194.5731	1088.8705	202.60928	-1428.0719	1083.0669	240.9518	-1432.2153	-1171.8688	1686.9979	-1581.677	-1170.5397	1648.0219	-1581.3746	-1271.1417	1699.2476	1098.1508	-1271.8146	1660.2744	1099.4299	953.55817	1704.9763	1182.4744	972.97034	1731.9137	1162.016	1026.6124	1669.2689	-1551.5375	1028.1852	1630.303	-1551.9694	411.25552	1607.0492	-61.595814	408.93066	1568.1267	-62.390583
4	0.025	-1038.2399	214.53853	-1644.0797	-1109.3451	203.98645	-1599.4368	-1063.4573	172.7964	-1626.0522	-1054.155	262.13916	-1634.9058	-1352.8622	235.1256	1004.0908	-1281.4543	227.30783	1052.499	-1322.9237	193.99695	1020.9812	-1284.7207	287.91034	1052.354	814.09467	187.73721	1209.5786	892.1272	178.61563	1179.2717	844.27527	145.65656	1198.2933	860.50885	292.89096	1167.3823	1115.7786	209.53287	-1401.5364	1056.2565	194.24875	-1460.2517	1094.9938	162.34518	-1423.8136	1069.8578	238.76842	-1425.9259	-1204.4844	1685.9153	-1563.3064	-1129.106	1688.261	-1605.9797	-1173.1464	1724.4518	-1581.9567	-1134.0192	1580.9987	-1603.713	-1239.7739	1699.4006	1119.5193	-1309.5159	1699.0559	1072.0103	-1270.4987	1736.4283	1096.9235	-1245.668	1592.9099	1110.7228	988.97418	1664.2655	1162.3215	955.89087	1702.3495	1181.1648	921.72394	1662.3553	1214.8752	939.78333	1659.3995	1159.9758	999.18335	1668.479	-1579.3765	1059.0188	1670.219	-1518.6512	1025.0435	1707.9839	-1551.0969	1059.2543	1672.2112	-1585.5928	411.0361	1606.281	-23.968124	411.51913	1607.9868	-108.11427	413.45892	1643.9791	-60.844952	444.1839	1605.0652	-61.094627	363.5094	1610.2566	-61.335377																																														-1068.4121	210.06091	-1625.136	-1073.551	248.70917	-1624.186	-1321.6763	231.71135	1025.2319	-1320.3954	270.44504	1029.5978	847.99963	183.7739	1196.4103	851.7876	222.54221	1194.4952	1088.865	202.62201	-1428.085	1083.0302	240.968	-1432.1517	-1171.8723	1686.9301	-1581.7687	-1170.5488	1647.953	-1581.5735	-1271.1479	1699.2455	1098.1469	-1271.8287	1660.2725	1099.4288	953.12531	1705.5331	1182.7399	972.77826	1732.5565	1162.6276	1026.6152	1669.2766	-1551.5365	1028.1975	1630.3113	-1551.979	411.25214	1607.0439	-61.606312	408.92667	1568.1217	-62.408638
